<mxfile host="app.diagrams.net" modified="2021-11-04T11:22:15.455Z" agent="5.0 (X11; Linux x86_64) AppleWebKit/537.36 (KHTML, like Gecko) Chrome/94.0.4606.81 Safari/537.36" etag="NOFwd68HV_Yz7poD-UO2" version="15.6.8" type="github" pages="5">
  <diagram id="ky77GYk_x9HN3-qAt-IM" name="MEMATCH TEMPLATE">
    <mxGraphModel dx="1695" dy="485" grid="1" gridSize="10" guides="1" tooltips="1" connect="1" arrows="1" fold="1" page="1" pageScale="1" pageWidth="827" pageHeight="1169" math="0" shadow="0">
      <root>
        <mxCell id="L5jJVWtfzV369neqJxl_-0" />
        <mxCell id="L5jJVWtfzV369neqJxl_-1" parent="L5jJVWtfzV369neqJxl_-0" />
        <mxCell id="L5jJVWtfzV369neqJxl_-22" value="&lt;font style=&quot;font-size: 10px&quot;&gt;PROFILE&lt;br&gt;STATUS&lt;br&gt;BAR&lt;br&gt;&lt;/font&gt;&lt;div&gt;&lt;/div&gt;" style="rounded=0;whiteSpace=wrap;html=1;fontSize=19;align=right;fillColor=#FF33FF;" vertex="1" parent="L5jJVWtfzV369neqJxl_-1">
          <mxGeometry y="330" width="840" height="190" as="geometry" />
        </mxCell>
        <mxCell id="L5jJVWtfzV369neqJxl_-2" value="&lt;blockquote style=&quot;margin: 0 0 0 40px ; border: none ; padding: 0px&quot;&gt;&lt;blockquote style=&quot;margin: 0 0 0 40px ; border: none ; padding: 0px&quot;&gt;&lt;blockquote style=&quot;margin: 0 0 0 40px ; border: none ; padding: 0px&quot;&gt;&lt;blockquote style=&quot;margin: 0 0 0 40px ; border: none ; padding: 0px&quot;&gt;&lt;div style=&quot;text-align: justify&quot;&gt;&lt;b style=&quot;font-size: 14px&quot;&gt;Topbar&lt;/b&gt;&lt;/div&gt;&lt;/blockquote&gt;&lt;/blockquote&gt;&lt;/blockquote&gt;&lt;/blockquote&gt;" style="rounded=0;whiteSpace=wrap;html=1;align=right;fillColor=#3333FF;" vertex="1" parent="L5jJVWtfzV369neqJxl_-1">
          <mxGeometry y="10" width="840" height="160" as="geometry" />
        </mxCell>
        <mxCell id="L5jJVWtfzV369neqJxl_-3" value="LOGO" style="rounded=0;whiteSpace=wrap;html=1;fontSize=14;align=right;" vertex="1" parent="L5jJVWtfzV369neqJxl_-1">
          <mxGeometry x="10" y="50" width="50" height="40" as="geometry" />
        </mxCell>
        <mxCell id="L5jJVWtfzV369neqJxl_-4" value="HOME" style="rounded=0;whiteSpace=wrap;html=1;fontSize=14;align=right;" vertex="1" parent="L5jJVWtfzV369neqJxl_-1">
          <mxGeometry x="90" y="55" width="50" height="30" as="geometry" />
        </mxCell>
        <mxCell id="L5jJVWtfzV369neqJxl_-5" value="MYPOST" style="rounded=0;whiteSpace=wrap;html=1;fontSize=14;align=right;" vertex="1" parent="L5jJVWtfzV369neqJxl_-1">
          <mxGeometry x="160" y="55" width="60" height="27.5" as="geometry" />
        </mxCell>
        <mxCell id="L5jJVWtfzV369neqJxl_-7" value="CONTACT" style="rounded=0;whiteSpace=wrap;html=1;fontSize=14;align=right;" vertex="1" parent="L5jJVWtfzV369neqJxl_-1">
          <mxGeometry x="310" y="51.25" width="70" height="35" as="geometry" />
        </mxCell>
        <mxCell id="L5jJVWtfzV369neqJxl_-8" value="ABOUT" style="rounded=0;whiteSpace=wrap;html=1;fontSize=14;align=right;" vertex="1" parent="L5jJVWtfzV369neqJxl_-1">
          <mxGeometry x="240" y="53.75" width="50" height="30" as="geometry" />
        </mxCell>
        <mxCell id="L5jJVWtfzV369neqJxl_-9" value="SEARCH" style="rounded=0;whiteSpace=wrap;html=1;fontSize=14;align=right;" vertex="1" parent="L5jJVWtfzV369neqJxl_-1">
          <mxGeometry x="430" y="60" width="80" height="20" as="geometry" />
        </mxCell>
        <mxCell id="L5jJVWtfzV369neqJxl_-10" value="NOTIFICATION" style="rounded=0;whiteSpace=wrap;html=1;fontSize=14;align=right;" vertex="1" parent="L5jJVWtfzV369neqJxl_-1">
          <mxGeometry x="550" y="61.25" width="100" height="21.25" as="geometry" />
        </mxCell>
        <mxCell id="L5jJVWtfzV369neqJxl_-12" value="IMG" style="ellipse;whiteSpace=wrap;html=1;aspect=fixed;fontSize=14;align=right;" vertex="1" parent="L5jJVWtfzV369neqJxl_-1">
          <mxGeometry x="680" y="45.94" width="48.12" height="48.12" as="geometry" />
        </mxCell>
        <mxCell id="L5jJVWtfzV369neqJxl_-14" value="PROFILE NAME" style="rounded=0;whiteSpace=wrap;html=1;fontSize=14;align=right;" vertex="1" parent="L5jJVWtfzV369neqJxl_-1">
          <mxGeometry x="728.12" y="61.88" width="111.88" height="18.12" as="geometry" />
        </mxCell>
        <mxCell id="L5jJVWtfzV369neqJxl_-15" value="&lt;b&gt;&lt;font style=&quot;font-size: 19px&quot;&gt;APP HEADER BAR&lt;/font&gt;&lt;/b&gt;" style="rounded=0;whiteSpace=wrap;html=1;fontSize=14;align=center;fillColor=#FFB366;" vertex="1" parent="L5jJVWtfzV369neqJxl_-1">
          <mxGeometry y="170" width="840" height="160" as="geometry" />
        </mxCell>
        <mxCell id="L5jJVWtfzV369neqJxl_-17" value="LATEST PROFILE" style="whiteSpace=wrap;html=1;aspect=fixed;fontSize=19;align=center;" vertex="1" parent="L5jJVWtfzV369neqJxl_-1">
          <mxGeometry x="30" y="360" width="130" height="130" as="geometry" />
        </mxCell>
        <mxCell id="L5jJVWtfzV369neqJxl_-19" value="CONTACTED PROFILES" style="whiteSpace=wrap;html=1;aspect=fixed;fontSize=19;align=center;" vertex="1" parent="L5jJVWtfzV369neqJxl_-1">
          <mxGeometry x="414" y="360" width="130" height="130" as="geometry" />
        </mxCell>
        <mxCell id="L5jJVWtfzV369neqJxl_-18" value="PROFILES LIKED&lt;span style=&quot;white-space: pre&quot;&gt;	&lt;/span&gt;" style="whiteSpace=wrap;html=1;aspect=fixed;fontSize=19;align=center;" vertex="1" parent="L5jJVWtfzV369neqJxl_-1">
          <mxGeometry x="210" y="360" width="130" height="130" as="geometry" />
        </mxCell>
        <mxCell id="L5jJVWtfzV369neqJxl_-20" value="MATHCED PROFILES" style="whiteSpace=wrap;html=1;aspect=fixed;fontSize=19;align=center;" vertex="1" parent="L5jJVWtfzV369neqJxl_-1">
          <mxGeometry x="590" y="360" width="130" height="130" as="geometry" />
        </mxCell>
        <mxCell id="L5jJVWtfzV369neqJxl_-21" value="&lt;font style=&quot;font-size: 8px&quot;&gt;POST&lt;/font&gt; &lt;font style=&quot;font-size: 7px&quot;&gt;COMP&lt;/font&gt;" style="rounded=0;whiteSpace=wrap;html=1;fontSize=19;align=right;fillColor=#00FF00;" vertex="1" parent="L5jJVWtfzV369neqJxl_-1">
          <mxGeometry x="-13" y="520" width="853" height="400" as="geometry" />
        </mxCell>
        <mxCell id="L5jJVWtfzV369neqJxl_-27" value="PROFILE IMAGE" style="whiteSpace=wrap;html=1;aspect=fixed;fontSize=10;align=center;" vertex="1" parent="L5jJVWtfzV369neqJxl_-1">
          <mxGeometry x="10" y="600" width="270" height="270" as="geometry" />
        </mxCell>
        <mxCell id="L5jJVWtfzV369neqJxl_-28" value="&lt;font style=&quot;font-size: 12px&quot;&gt;NAME&lt;/font&gt;" style="rounded=0;whiteSpace=wrap;html=1;fontSize=7;align=right;" vertex="1" parent="L5jJVWtfzV369neqJxl_-1">
          <mxGeometry x="300" y="608.75" width="40" height="15" as="geometry" />
        </mxCell>
        <mxCell id="L5jJVWtfzV369neqJxl_-29" value="&lt;font style=&quot;font-size: 12px&quot;&gt;AGE&lt;/font&gt;" style="rounded=0;whiteSpace=wrap;html=1;fontSize=7;align=right;" vertex="1" parent="L5jJVWtfzV369neqJxl_-1">
          <mxGeometry x="300" y="650" width="40" height="15" as="geometry" />
        </mxCell>
        <mxCell id="L5jJVWtfzV369neqJxl_-30" value="&lt;font style=&quot;font-size: 12px&quot;&gt;RELIGION&lt;/font&gt;" style="rounded=0;whiteSpace=wrap;html=1;fontSize=7;align=right;" vertex="1" parent="L5jJVWtfzV369neqJxl_-1">
          <mxGeometry x="300" y="760" width="65" height="15" as="geometry" />
        </mxCell>
        <mxCell id="L5jJVWtfzV369neqJxl_-33" value="&lt;font style=&quot;font-size: 12px&quot;&gt;GENDER&lt;/font&gt;" style="rounded=0;whiteSpace=wrap;html=1;fontSize=7;align=right;" vertex="1" parent="L5jJVWtfzV369neqJxl_-1">
          <mxGeometry x="300" y="720" width="60" height="20" as="geometry" />
        </mxCell>
        <mxCell id="L5jJVWtfzV369neqJxl_-34" value="&lt;font style=&quot;font-size: 12px&quot;&gt;EDUCATION&lt;/font&gt;" style="rounded=0;whiteSpace=wrap;html=1;fontSize=7;align=right;" vertex="1" parent="L5jJVWtfzV369neqJxl_-1">
          <mxGeometry x="292.5" y="790" width="77.5" height="20" as="geometry" />
        </mxCell>
        <mxCell id="L5jJVWtfzV369neqJxl_-35" value="&lt;font style=&quot;font-size: 12px&quot;&gt;CASTE&lt;/font&gt;" style="rounded=0;whiteSpace=wrap;html=1;fontSize=7;align=right;" vertex="1" parent="L5jJVWtfzV369neqJxl_-1">
          <mxGeometry x="300" y="690" width="50" height="20" as="geometry" />
        </mxCell>
        <mxCell id="L5jJVWtfzV369neqJxl_-36" value="&lt;font style=&quot;font-size: 12px&quot;&gt;OCCUPATION&lt;/font&gt;" style="rounded=0;whiteSpace=wrap;html=1;fontSize=7;align=right;" vertex="1" parent="L5jJVWtfzV369neqJxl_-1">
          <mxGeometry x="300" y="840" width="80" height="20" as="geometry" />
        </mxCell>
        <mxCell id="L5jJVWtfzV369neqJxl_-43" value="PROFILE ID" style="rounded=0;whiteSpace=wrap;html=1;fontSize=12;align=right;" vertex="1" parent="L5jJVWtfzV369neqJxl_-1">
          <mxGeometry x="10" y="542.5" width="80" height="20" as="geometry" />
        </mxCell>
        <mxCell id="L5jJVWtfzV369neqJxl_-44" value="PROFILE CREATED BY&amp;nbsp;" style="rounded=0;whiteSpace=wrap;html=1;fontSize=12;align=right;" vertex="1" parent="L5jJVWtfzV369neqJxl_-1">
          <mxGeometry x="110" y="540" width="150" height="22.5" as="geometry" />
        </mxCell>
        <mxCell id="L5jJVWtfzV369neqJxl_-48" value="VIEW FULL PROFILE" style="rounded=0;whiteSpace=wrap;html=1;fontSize=12;align=right;" vertex="1" parent="L5jJVWtfzV369neqJxl_-1">
          <mxGeometry x="450" y="840" width="130" height="20" as="geometry" />
        </mxCell>
        <mxCell id="L5jJVWtfzV369neqJxl_-49" value="SINGLE PROFILE" style="rounded=0;whiteSpace=wrap;html=1;fontSize=12;align=right;fillColor=#99FFFF;" vertex="1" parent="L5jJVWtfzV369neqJxl_-1">
          <mxGeometry x="-10.25" y="920" width="843" height="1950" as="geometry" />
        </mxCell>
        <mxCell id="L5jJVWtfzV369neqJxl_-50" value="PROFILE IMAGE" style="whiteSpace=wrap;html=1;aspect=fixed;fontSize=10;align=center;" vertex="1" parent="L5jJVWtfzV369neqJxl_-1">
          <mxGeometry x="10" y="990" width="270" height="270" as="geometry" />
        </mxCell>
        <mxCell id="L5jJVWtfzV369neqJxl_-51" value="PROFILE ID" style="rounded=0;whiteSpace=wrap;html=1;fontSize=12;align=right;" vertex="1" parent="L5jJVWtfzV369neqJxl_-1">
          <mxGeometry x="10" y="950" width="80" height="20" as="geometry" />
        </mxCell>
        <mxCell id="L5jJVWtfzV369neqJxl_-52" value="PROFILE CREATED BY&amp;nbsp;" style="rounded=0;whiteSpace=wrap;html=1;fontSize=12;align=right;" vertex="1" parent="L5jJVWtfzV369neqJxl_-1">
          <mxGeometry x="110" y="950" width="150" height="17.5" as="geometry" />
        </mxCell>
        <mxCell id="L5jJVWtfzV369neqJxl_-53" value="&lt;font style=&quot;font-size: 12px&quot;&gt;NAME&lt;/font&gt;" style="rounded=0;whiteSpace=wrap;html=1;fontSize=7;align=right;" vertex="1" parent="L5jJVWtfzV369neqJxl_-1">
          <mxGeometry x="325" y="990" width="40" height="15" as="geometry" />
        </mxCell>
        <mxCell id="L5jJVWtfzV369neqJxl_-54" value="&lt;font style=&quot;font-size: 12px&quot;&gt;AGE&lt;/font&gt;" style="rounded=0;whiteSpace=wrap;html=1;fontSize=7;align=right;" vertex="1" parent="L5jJVWtfzV369neqJxl_-1">
          <mxGeometry x="325" y="1020" width="40" height="15" as="geometry" />
        </mxCell>
        <mxCell id="L5jJVWtfzV369neqJxl_-55" value="&lt;font style=&quot;font-size: 12px&quot;&gt;CASTE&lt;/font&gt;" style="rounded=0;whiteSpace=wrap;html=1;fontSize=7;align=right;" vertex="1" parent="L5jJVWtfzV369neqJxl_-1">
          <mxGeometry x="325" y="1060" width="50" height="20" as="geometry" />
        </mxCell>
        <mxCell id="L5jJVWtfzV369neqJxl_-56" value="&lt;font style=&quot;font-size: 12px&quot;&gt;GENDER&lt;/font&gt;" style="rounded=0;whiteSpace=wrap;html=1;fontSize=7;align=right;" vertex="1" parent="L5jJVWtfzV369neqJxl_-1">
          <mxGeometry x="325" y="1100" width="60" height="20" as="geometry" />
        </mxCell>
        <mxCell id="L5jJVWtfzV369neqJxl_-57" value="&lt;font style=&quot;font-size: 12px&quot;&gt;RELIGION&lt;/font&gt;" style="rounded=0;whiteSpace=wrap;html=1;fontSize=7;align=right;" vertex="1" parent="L5jJVWtfzV369neqJxl_-1">
          <mxGeometry x="325" y="1140" width="65" height="15" as="geometry" />
        </mxCell>
        <mxCell id="L5jJVWtfzV369neqJxl_-58" value="&lt;font style=&quot;font-size: 12px&quot;&gt;EDUCATION&lt;/font&gt;" style="rounded=0;whiteSpace=wrap;html=1;fontSize=7;align=right;" vertex="1" parent="L5jJVWtfzV369neqJxl_-1">
          <mxGeometry x="325" y="1169" width="77.5" height="20" as="geometry" />
        </mxCell>
        <mxCell id="L5jJVWtfzV369neqJxl_-59" value="&lt;font style=&quot;font-size: 12px&quot;&gt;OCCUPATION&lt;/font&gt;" style="rounded=0;whiteSpace=wrap;html=1;fontSize=7;align=right;" vertex="1" parent="L5jJVWtfzV369neqJxl_-1">
          <mxGeometry x="325" y="1200" width="80" height="20" as="geometry" />
        </mxCell>
        <mxCell id="L5jJVWtfzV369neqJxl_-60" value="BASIC DETAILS" style="rounded=0;whiteSpace=wrap;html=1;fontSize=12;align=right;" vertex="1" parent="L5jJVWtfzV369neqJxl_-1">
          <mxGeometry x="10" y="1310" width="100" height="20" as="geometry" />
        </mxCell>
        <mxCell id="L5jJVWtfzV369neqJxl_-61" value="" style="rounded=0;whiteSpace=wrap;html=1;fontSize=12;align=right;" vertex="1" parent="L5jJVWtfzV369neqJxl_-1">
          <mxGeometry x="10" y="1350" width="800" height="280" as="geometry" />
        </mxCell>
        <mxCell id="L5jJVWtfzV369neqJxl_-62" value="PROFILE CRAETED BY" style="rounded=0;whiteSpace=wrap;html=1;fontSize=12;align=right;" vertex="1" parent="L5jJVWtfzV369neqJxl_-1">
          <mxGeometry x="20" y="1360" width="140" height="20" as="geometry" />
        </mxCell>
        <mxCell id="L5jJVWtfzV369neqJxl_-63" value="&lt;font style=&quot;font-size: 12px&quot;&gt;AGE&lt;/font&gt;" style="rounded=0;whiteSpace=wrap;html=1;fontSize=7;align=right;" vertex="1" parent="L5jJVWtfzV369neqJxl_-1">
          <mxGeometry x="20" y="1390" width="35" height="15" as="geometry" />
        </mxCell>
        <mxCell id="L5jJVWtfzV369neqJxl_-64" value="&lt;font style=&quot;font-size: 12px&quot;&gt;MARTIAL STATUS&lt;/font&gt;" style="rounded=0;whiteSpace=wrap;html=1;fontSize=7;align=right;" vertex="1" parent="L5jJVWtfzV369neqJxl_-1">
          <mxGeometry x="20" y="1450" width="110" height="20" as="geometry" />
        </mxCell>
        <mxCell id="L5jJVWtfzV369neqJxl_-65" value="&lt;font style=&quot;font-size: 12px&quot;&gt;GENDER&lt;/font&gt;" style="rounded=0;whiteSpace=wrap;html=1;fontSize=7;align=right;" vertex="1" parent="L5jJVWtfzV369neqJxl_-1">
          <mxGeometry x="20" y="1480" width="60" height="20" as="geometry" />
        </mxCell>
        <mxCell id="L5jJVWtfzV369neqJxl_-66" value="&lt;span style=&quot;font-size: 12px&quot;&gt;DATE OF BIRTH&lt;/span&gt;" style="rounded=0;whiteSpace=wrap;html=1;fontSize=7;align=right;" vertex="1" parent="L5jJVWtfzV369neqJxl_-1">
          <mxGeometry x="20" y="1510" width="100" height="20" as="geometry" />
        </mxCell>
        <mxCell id="L5jJVWtfzV369neqJxl_-67" value="&lt;font style=&quot;font-size: 12px&quot;&gt;TIME&lt;/font&gt;" style="rounded=0;whiteSpace=wrap;html=1;fontSize=7;align=right;" vertex="1" parent="L5jJVWtfzV369neqJxl_-1">
          <mxGeometry x="20" y="1540" width="40" height="20" as="geometry" />
        </mxCell>
        <mxCell id="L5jJVWtfzV369neqJxl_-68" value="&lt;font style=&quot;font-size: 12px&quot;&gt;CASTE&lt;/font&gt;" style="rounded=0;whiteSpace=wrap;html=1;fontSize=7;align=right;" vertex="1" parent="L5jJVWtfzV369neqJxl_-1">
          <mxGeometry x="20" y="1420" width="41.5" height="20" as="geometry" />
        </mxCell>
        <mxCell id="L5jJVWtfzV369neqJxl_-69" value="&lt;font style=&quot;font-size: 12px&quot;&gt;PLACE OF BIRTH&lt;/font&gt;" style="rounded=0;whiteSpace=wrap;html=1;fontSize=7;align=right;" vertex="1" parent="L5jJVWtfzV369neqJxl_-1">
          <mxGeometry x="20" y="1570" width="105" height="20" as="geometry" />
        </mxCell>
        <mxCell id="L5jJVWtfzV369neqJxl_-70" value="&lt;font style=&quot;font-size: 12px&quot;&gt;GOTHRAM&lt;/font&gt;" style="rounded=0;whiteSpace=wrap;html=1;fontSize=7;align=right;" vertex="1" parent="L5jJVWtfzV369neqJxl_-1">
          <mxGeometry x="303.5" y="1385" width="61.5" height="20" as="geometry" />
        </mxCell>
        <mxCell id="L5jJVWtfzV369neqJxl_-71" value="&lt;font style=&quot;font-size: 12px&quot;&gt;NAKSHATRAM&lt;/font&gt;" style="rounded=0;whiteSpace=wrap;html=1;fontSize=7;align=right;" vertex="1" parent="L5jJVWtfzV369neqJxl_-1">
          <mxGeometry x="300" y="1420" width="91.5" height="20" as="geometry" />
        </mxCell>
        <mxCell id="L5jJVWtfzV369neqJxl_-72" value="&lt;font style=&quot;font-size: 12px&quot;&gt;HEIGHT&lt;/font&gt;" style="rounded=0;whiteSpace=wrap;html=1;fontSize=7;align=right;" vertex="1" parent="L5jJVWtfzV369neqJxl_-1">
          <mxGeometry x="310" y="1450" width="51.5" height="20" as="geometry" />
        </mxCell>
        <mxCell id="L5jJVWtfzV369neqJxl_-73" value="&lt;font style=&quot;font-size: 12px&quot;&gt;COMPLEXION&lt;/font&gt;" style="rounded=0;whiteSpace=wrap;html=1;fontSize=7;align=right;" vertex="1" parent="L5jJVWtfzV369neqJxl_-1">
          <mxGeometry x="310" y="1480" width="80" height="20" as="geometry" />
        </mxCell>
        <mxCell id="L5jJVWtfzV369neqJxl_-74" value="&lt;font style=&quot;font-size: 12px&quot;&gt;EDUCATION&lt;/font&gt;" style="rounded=0;whiteSpace=wrap;html=1;fontSize=7;align=right;" vertex="1" parent="L5jJVWtfzV369neqJxl_-1">
          <mxGeometry x="314.25" y="1510" width="81.5" height="20" as="geometry" />
        </mxCell>
        <mxCell id="L5jJVWtfzV369neqJxl_-75" value="&lt;font style=&quot;font-size: 12px&quot;&gt;PROFESSION&lt;/font&gt;" style="rounded=0;whiteSpace=wrap;html=1;fontSize=7;align=right;" vertex="1" parent="L5jJVWtfzV369neqJxl_-1">
          <mxGeometry x="303.5" y="1540" width="90" height="20" as="geometry" />
        </mxCell>
        <mxCell id="L5jJVWtfzV369neqJxl_-76" value="&lt;font style=&quot;font-size: 12px&quot;&gt;WORK INDUSTRY&lt;/font&gt;" style="rounded=0;whiteSpace=wrap;html=1;fontSize=7;align=right;" vertex="1" parent="L5jJVWtfzV369neqJxl_-1">
          <mxGeometry x="308.75" y="1580" width="110" height="20" as="geometry" />
        </mxCell>
        <mxCell id="L5jJVWtfzV369neqJxl_-77" value="FAMILY DETAILS" style="rounded=0;whiteSpace=wrap;html=1;fontSize=12;align=right;" vertex="1" parent="L5jJVWtfzV369neqJxl_-1">
          <mxGeometry x="10" y="1640" width="100" height="20" as="geometry" />
        </mxCell>
        <mxCell id="L5jJVWtfzV369neqJxl_-78" value="" style="rounded=0;whiteSpace=wrap;html=1;fontSize=12;align=right;" vertex="1" parent="L5jJVWtfzV369neqJxl_-1">
          <mxGeometry x="10" y="1690" width="800" height="210" as="geometry" />
        </mxCell>
        <mxCell id="L5jJVWtfzV369neqJxl_-79" value="FATHER&#39;S NAME" style="rounded=0;whiteSpace=wrap;html=1;fontSize=12;align=right;" vertex="1" parent="L5jJVWtfzV369neqJxl_-1">
          <mxGeometry x="20" y="1700" width="120" height="20" as="geometry" />
        </mxCell>
        <mxCell id="L5jJVWtfzV369neqJxl_-80" value="FATHER&#39;S OCCUPATION" style="rounded=0;whiteSpace=wrap;html=1;fontSize=12;align=right;" vertex="1" parent="L5jJVWtfzV369neqJxl_-1">
          <mxGeometry x="20" y="1734" width="150" height="20" as="geometry" />
        </mxCell>
        <mxCell id="L5jJVWtfzV369neqJxl_-81" value="MOTHER&#39;S NAME" style="rounded=0;whiteSpace=wrap;html=1;fontSize=12;align=right;" vertex="1" parent="L5jJVWtfzV369neqJxl_-1">
          <mxGeometry x="20" y="1770" width="120" height="20" as="geometry" />
        </mxCell>
        <mxCell id="L5jJVWtfzV369neqJxl_-82" value="MOTHER&#39;S OCCUPATION" style="rounded=0;whiteSpace=wrap;html=1;fontSize=12;align=right;" vertex="1" parent="L5jJVWtfzV369neqJxl_-1">
          <mxGeometry x="20" y="1805" width="150" height="20" as="geometry" />
        </mxCell>
        <mxCell id="L5jJVWtfzV369neqJxl_-83" value="SIBLINGS" style="rounded=0;whiteSpace=wrap;html=1;fontSize=12;align=right;" vertex="1" parent="L5jJVWtfzV369neqJxl_-1">
          <mxGeometry x="20" y="1840" width="70" height="20" as="geometry" />
        </mxCell>
        <mxCell id="L5jJVWtfzV369neqJxl_-84" value="PROPERTY DETAILS" style="rounded=0;whiteSpace=wrap;html=1;fontSize=12;align=right;" vertex="1" parent="L5jJVWtfzV369neqJxl_-1">
          <mxGeometry x="10" y="1970" width="140" height="20" as="geometry" />
        </mxCell>
        <mxCell id="L5jJVWtfzV369neqJxl_-85" value="&lt;font style=&quot;font-size: 12px&quot;&gt;SALARY&lt;/font&gt;" style="rounded=0;whiteSpace=wrap;html=1;fontSize=7;align=right;" vertex="1" parent="L5jJVWtfzV369neqJxl_-1">
          <mxGeometry x="434" y="1390" width="66" height="20" as="geometry" />
        </mxCell>
        <mxCell id="L5jJVWtfzV369neqJxl_-86" value="" style="rounded=0;whiteSpace=wrap;html=1;fontSize=12;align=right;" vertex="1" parent="L5jJVWtfzV369neqJxl_-1">
          <mxGeometry x="12.5" y="2030" width="797.5" height="160" as="geometry" />
        </mxCell>
        <mxCell id="L5jJVWtfzV369neqJxl_-87" value="HOUSE" style="rounded=0;whiteSpace=wrap;html=1;fontSize=12;align=right;" vertex="1" parent="L5jJVWtfzV369neqJxl_-1">
          <mxGeometry x="30" y="2040" width="50" height="20" as="geometry" />
        </mxCell>
        <mxCell id="L5jJVWtfzV369neqJxl_-88" value="HOUSE SQY" style="rounded=0;whiteSpace=wrap;html=1;fontSize=12;align=right;" vertex="1" parent="L5jJVWtfzV369neqJxl_-1">
          <mxGeometry x="30" y="2080" width="80" height="20" as="geometry" />
        </mxCell>
        <mxCell id="L5jJVWtfzV369neqJxl_-89" value="OTHER PROPERTIES" style="rounded=0;whiteSpace=wrap;html=1;fontSize=12;align=right;" vertex="1" parent="L5jJVWtfzV369neqJxl_-1">
          <mxGeometry x="27.5" y="2120" width="142.5" height="20" as="geometry" />
        </mxCell>
        <mxCell id="L5jJVWtfzV369neqJxl_-90" value="LIKE" style="rounded=0;whiteSpace=wrap;html=1;fontSize=12;fillColor=#00FF00;align=right;" vertex="1" parent="L5jJVWtfzV369neqJxl_-1">
          <mxGeometry x="220" y="1280" width="30" height="20" as="geometry" />
        </mxCell>
        <mxCell id="L5jJVWtfzV369neqJxl_-91" value="SHOW INTEREST" style="rounded=0;whiteSpace=wrap;html=1;fontSize=12;fillColor=#00FF00;align=right;" vertex="1" parent="L5jJVWtfzV369neqJxl_-1">
          <mxGeometry x="290" y="1280" width="110" height="20" as="geometry" />
        </mxCell>
        <mxCell id="L5jJVWtfzV369neqJxl_-92" value="SHOW INTEREST" style="rounded=0;whiteSpace=wrap;html=1;fontSize=12;fillColor=#00FF00;align=right;" vertex="1" parent="L5jJVWtfzV369neqJxl_-1">
          <mxGeometry x="418.75" y="1280" width="110" height="20" as="geometry" />
        </mxCell>
        <mxCell id="L5jJVWtfzV369neqJxl_-93" value="CONTACT DETAILS" style="rounded=0;whiteSpace=wrap;html=1;fontSize=12;align=right;" vertex="1" parent="L5jJVWtfzV369neqJxl_-1">
          <mxGeometry x="27.5" y="2220" width="120" height="20" as="geometry" />
        </mxCell>
        <mxCell id="L5jJVWtfzV369neqJxl_-94" value="" style="rounded=0;whiteSpace=wrap;html=1;fontSize=12;fillColor=#FFFFFF;align=right;" vertex="1" parent="L5jJVWtfzV369neqJxl_-1">
          <mxGeometry x="27.5" y="2260" width="772.5" height="120" as="geometry" />
        </mxCell>
        <mxCell id="L5jJVWtfzV369neqJxl_-95" value="CONTACT NUMBER" style="rounded=0;whiteSpace=wrap;html=1;fontSize=12;fillColor=#FFFFFF;align=right;" vertex="1" parent="L5jJVWtfzV369neqJxl_-1">
          <mxGeometry x="50" y="2270" width="120" height="20" as="geometry" />
        </mxCell>
        <mxCell id="L5jJVWtfzV369neqJxl_-96" value="WHATSAPP NUMBER" style="rounded=0;whiteSpace=wrap;html=1;fontSize=12;fillColor=#FFFFFF;align=right;" vertex="1" parent="L5jJVWtfzV369neqJxl_-1">
          <mxGeometry x="50" y="2310" width="140" height="20" as="geometry" />
        </mxCell>
        <mxCell id="L5jJVWtfzV369neqJxl_-98" value="PREFERRING MATCH" style="rounded=0;whiteSpace=wrap;html=1;fontSize=12;align=right;" vertex="1" parent="L5jJVWtfzV369neqJxl_-1">
          <mxGeometry x="27.5" y="2420" width="132.5" height="20" as="geometry" />
        </mxCell>
        <mxCell id="L5jJVWtfzV369neqJxl_-99" value="" style="rounded=0;whiteSpace=wrap;html=1;fontSize=12;fillColor=#FFFFFF;align=right;" vertex="1" parent="L5jJVWtfzV369neqJxl_-1">
          <mxGeometry x="20" y="2470" width="770" height="280" as="geometry" />
        </mxCell>
        <mxCell id="L5jJVWtfzV369neqJxl_-100" value="AGE" style="rounded=0;whiteSpace=wrap;html=1;fontSize=12;fillColor=#FFFFFF;align=right;" vertex="1" parent="L5jJVWtfzV369neqJxl_-1">
          <mxGeometry x="50" y="2480" width="40" height="20" as="geometry" />
        </mxCell>
        <mxCell id="L5jJVWtfzV369neqJxl_-101" value="HEIGHT" style="rounded=0;whiteSpace=wrap;html=1;fontSize=12;fillColor=#FFFFFF;align=right;" vertex="1" parent="L5jJVWtfzV369neqJxl_-1">
          <mxGeometry x="50" y="2510" width="60" height="20" as="geometry" />
        </mxCell>
        <mxCell id="L5jJVWtfzV369neqJxl_-102" value="PROFESSION" style="rounded=0;whiteSpace=wrap;html=1;fontSize=12;fillColor=#FFFFFF;align=right;" vertex="1" parent="L5jJVWtfzV369neqJxl_-1">
          <mxGeometry x="50" y="2550" width="90" height="20" as="geometry" />
        </mxCell>
        <mxCell id="L5jJVWtfzV369neqJxl_-103" value="RELIGION" style="rounded=0;whiteSpace=wrap;html=1;fontSize=12;fillColor=#FFFFFF;align=right;" vertex="1" parent="L5jJVWtfzV369neqJxl_-1">
          <mxGeometry x="48.75" y="2580" width="71.25" height="20" as="geometry" />
        </mxCell>
        <mxCell id="L5jJVWtfzV369neqJxl_-104" value="CASTE" style="rounded=0;whiteSpace=wrap;html=1;fontSize=12;fillColor=#FFFFFF;align=right;" vertex="1" parent="L5jJVWtfzV369neqJxl_-1">
          <mxGeometry x="53.75" y="2620" width="46.25" height="20" as="geometry" />
        </mxCell>
        <mxCell id="L5jJVWtfzV369neqJxl_-105" value="SALARY" style="rounded=0;whiteSpace=wrap;html=1;fontSize=12;fillColor=#FFFFFF;align=right;" vertex="1" parent="L5jJVWtfzV369neqJxl_-1">
          <mxGeometry x="51.88" y="2660" width="58.12" height="20" as="geometry" />
        </mxCell>
        <mxCell id="L5jJVWtfzV369neqJxl_-106" value="PROPERTY" style="rounded=0;whiteSpace=wrap;html=1;fontSize=12;fillColor=#FFFFFF;align=right;" vertex="1" parent="L5jJVWtfzV369neqJxl_-1">
          <mxGeometry x="47.81" y="2700" width="72.19" height="20" as="geometry" />
        </mxCell>
        <mxCell id="OvczHZ18dKkD5yVE1pq_-0" value="EDIT PROFILE" style="rounded=0;whiteSpace=wrap;html=1;fontSize=12;fillColor=#FFFFFF;align=center;" vertex="1" parent="L5jJVWtfzV369neqJxl_-1">
          <mxGeometry x="590" y="955" width="100" height="20" as="geometry" />
        </mxCell>
        <mxCell id="OvczHZ18dKkD5yVE1pq_-2" value="DELETE PROFILE" style="rounded=0;whiteSpace=wrap;html=1;fontSize=12;fillColor=#FFFFFF;align=center;" vertex="1" parent="L5jJVWtfzV369neqJxl_-1">
          <mxGeometry x="700" y="955" width="110" height="20" as="geometry" />
        </mxCell>
      </root>
    </mxGraphModel>
  </diagram>
  <diagram id="6oPlkn_OMn_tZfHPyIgP" name="Profile_Create">
    <mxGraphModel dx="868" dy="485" grid="1" gridSize="10" guides="1" tooltips="1" connect="1" arrows="1" fold="1" page="1" pageScale="1" pageWidth="827" pageHeight="1169" math="0" shadow="0">
      <root>
        <mxCell id="gQ8iV9-HGIT4t2tzXrnF-0" />
        <mxCell id="gQ8iV9-HGIT4t2tzXrnF-1" parent="gQ8iV9-HGIT4t2tzXrnF-0" />
        <mxCell id="Ocym39R80YB-B9Lz2pLk-0" value="&lt;span style=&quot;color: rgba(0 , 0 , 0 , 0) ; font-family: monospace ; font-size: 0px&quot;&gt;%3CmxGraphModel%3E%3Croot%3E%3CmxCell%20id%3D%220%22%2F%3E%3CmxCell%20id%3D%221%22%20parent%3D%220%22%2F%3E%3CmxCell%20id%3D%222%22%20value%3D%22PROFILE%20CRAETED%20BY%22%20style%3D%22rounded%3D0%3BwhiteSpace%3Dwrap%3Bhtml%3D1%3BfontSize%3D12%3Balign%3Dright%3B%22%20vertex%3D%221%22%20parent%3D%221%22%3E%3CmxGeometry%20x%3D%2220%22%20y%3D%221360%22%20width%3D%22140%22%20height%3D%2220%22%20as%3D%22geometry%22%2F%3E%3C%2FmxCell%3E%3CmxCell%20id%3D%223%22%20value%3D%22%26lt%3Bfont%20style%3D%26quot%3Bfont-size%3A%2012px%26quot%3B%26gt%3BAGE%26lt%3B%2Ffont%26gt%3B%22%20style%3D%22rounded%3D0%3BwhiteSpace%3Dwrap%3Bhtml%3D1%3BfontSize%3D7%3Balign%3Dright%3B%22%20vertex%3D%221%22%20parent%3D%221%22%3E%3CmxGeometry%20x%3D%2220%22%20y%3D%221390%22%20width%3D%2235%22%20height%3D%2215%22%20as%3D%22geometry%22%2F%3E%3C%2FmxCell%3E%3CmxCell%20id%3D%224%22%20value%3D%22%26lt%3Bfont%20style%3D%26quot%3Bfont-size%3A%2012px%26quot%3B%26gt%3BMARTIAL%20STATUS%26lt%3B%2Ffont%26gt%3B%22%20style%3D%22rounded%3D0%3BwhiteSpace%3Dwrap%3Bhtml%3D1%3BfontSize%3D7%3Balign%3Dright%3B%22%20vertex%3D%221%22%20parent%3D%221%22%3E%3CmxGeometry%20x%3D%2220%22%20y%3D%221450%22%20width%3D%22110%22%20height%3D%2220%22%20as%3D%22geometry%22%2F%3E%3C%2FmxCell%3E%3CmxCell%20id%3D%225%22%20value%3D%22%26lt%3Bfont%20style%3D%26quot%3Bfont-size%3A%2012px%26quot%3B%26gt%3BGENDER%26lt%3B%2Ffont%26gt%3B%22%20style%3D%22rounded%3D0%3BwhiteSpace%3Dwrap%3Bhtml%3D1%3BfontSize%3D7%3Balign%3Dright%3B%22%20vertex%3D%221%22%20parent%3D%221%22%3E%3CmxGeometry%20x%3D%2220%22%20y%3D%221480%22%20width%3D%2260%22%20height%3D%2220%22%20as%3D%22geometry%22%2F%3E%3C%2FmxCell%3E%3CmxCell%20id%3D%226%22%20value%3D%22%26lt%3Bspan%20style%3D%26quot%3Bfont-size%3A%2012px%26quot%3B%26gt%3BDATE%20OF%20BIRTH%26lt%3B%2Fspan%26gt%3B%22%20style%3D%22rounded%3D0%3BwhiteSpace%3Dwrap%3Bhtml%3D1%3BfontSize%3D7%3Balign%3Dright%3B%22%20vertex%3D%221%22%20parent%3D%221%22%3E%3CmxGeometry%20x%3D%2220%22%20y%3D%221510%22%20width%3D%22100%22%20height%3D%2220%22%20as%3D%22geometry%22%2F%3E%3C%2FmxCell%3E%3CmxCell%20id%3D%227%22%20value%3D%22%26lt%3Bfont%20style%3D%26quot%3Bfont-size%3A%2012px%26quot%3B%26gt%3BTIME%26lt%3B%2Ffont%26gt%3B%22%20style%3D%22rounded%3D0%3BwhiteSpace%3Dwrap%3Bhtml%3D1%3BfontSize%3D7%3Balign%3Dright%3B%22%20vertex%3D%221%22%20parent%3D%221%22%3E%3CmxGeometry%20x%3D%2220%22%20y%3D%221540%22%20width%3D%2240%22%20height%3D%2220%22%20as%3D%22geometry%22%2F%3E%3C%2FmxCell%3E%3CmxCell%20id%3D%228%22%20value%3D%22%26lt%3Bfont%20style%3D%26quot%3Bfont-size%3A%2012px%26quot%3B%26gt%3BCASTE%26lt%3B%2Ffont%26gt%3B%22%20style%3D%22rounded%3D0%3BwhiteSpace%3Dwrap%3Bhtml%3D1%3BfontSize%3D7%3Balign%3Dright%3B%22%20vertex%3D%221%22%20parent%3D%221%22%3E%3CmxGeometry%20x%3D%2220%22%20y%3D%221420%22%20width%3D%2241.5%22%20height%3D%2220%22%20as%3D%22geometry%22%2F%3E%3C%2FmxCell%3E%3CmxCell%20id%3D%229%22%20value%3D%22%26lt%3Bfont%20style%3D%26quot%3Bfont-size%3A%2012px%26quot%3B%26gt%3BPLACE%20OF%20BIRTH%26lt%3B%2Ffont%26gt%3B%22%20style%3D%22rounded%3D0%3BwhiteSpace%3Dwrap%3Bhtml%3D1%3BfontSize%3D7%3Balign%3Dright%3B%22%20vertex%3D%221%22%20parent%3D%221%22%3E%3CmxGeometry%20x%3D%2220%22%20y%3D%221570%22%20width%3D%22105%22%20height%3D%2220%22%20as%3D%22geometry%22%2F%3E%3C%2FmxCell%3E%3CmxCell%20id%3D%2210%22%20value%3D%22%26lt%3Bfont%20style%3D%26quot%3Bfont-size%3A%2012px%26quot%3B%26gt%3BGOTHRAM%26lt%3B%2Ffont%26gt%3B%22%20style%3D%22rounded%3D0%3BwhiteSpace%3Dwrap%3Bhtml%3D1%3BfontSize%3D7%3Balign%3Dright%3B%22%20vertex%3D%221%22%20parent%3D%221%22%3E%3CmxGeometry%20x%3D%22303.5%22%20y%3D%221385%22%20width%3D%2261.5%22%20height%3D%2220%22%20as%3D%22geometry%22%2F%3E%3C%2FmxCell%3E%3CmxCell%20id%3D%2211%22%20value%3D%22%26lt%3Bfont%20style%3D%26quot%3Bfont-size%3A%2012px%26quot%3B%26gt%3BNAKSHATRAM%26lt%3B%2Ffont%26gt%3B%22%20style%3D%22rounded%3D0%3BwhiteSpace%3Dwrap%3Bhtml%3D1%3BfontSize%3D7%3Balign%3Dright%3B%22%20vertex%3D%221%22%20parent%3D%221%22%3E%3CmxGeometry%20x%3D%22300%22%20y%3D%221420%22%20width%3D%2291.5%22%20height%3D%2220%22%20as%3D%22geometry%22%2F%3E%3C%2FmxCell%3E%3CmxCell%20id%3D%2212%22%20value%3D%22%26lt%3Bfont%20style%3D%26quot%3Bfont-size%3A%2012px%26quot%3B%26gt%3BHEIGHT%26lt%3B%2Ffont%26gt%3B%22%20style%3D%22rounded%3D0%3BwhiteSpace%3Dwrap%3Bhtml%3D1%3BfontSize%3D7%3Balign%3Dright%3B%22%20vertex%3D%221%22%20parent%3D%221%22%3E%3CmxGeometry%20x%3D%22310%22%20y%3D%221450%22%20width%3D%2251.5%22%20height%3D%2220%22%20as%3D%22geometry%22%2F%3E%3C%2FmxCell%3E%3CmxCell%20id%3D%2213%22%20value%3D%22%26lt%3Bfont%20style%3D%26quot%3Bfont-size%3A%2012px%26quot%3B%26gt%3BCOMPLEXION%26lt%3B%2Ffont%26gt%3B%22%20style%3D%22rounded%3D0%3BwhiteSpace%3Dwrap%3Bhtml%3D1%3BfontSize%3D7%3Balign%3Dright%3B%22%20vertex%3D%221%22%20parent%3D%221%22%3E%3CmxGeometry%20x%3D%22310%22%20y%3D%221480%22%20width%3D%2280%22%20height%3D%2220%22%20as%3D%22geometry%22%2F%3E%3C%2FmxCell%3E%3CmxCell%20id%3D%2214%22%20value%3D%22%26lt%3Bfont%20style%3D%26quot%3Bfont-size%3A%2012px%26quot%3B%26gt%3BEDUCATION%26lt%3B%2Ffont%26gt%3B%22%20style%3D%22rounded%3D0%3BwhiteSpace%3Dwrap%3Bhtml%3D1%3BfontSize%3D7%3Balign%3Dright%3B%22%20vertex%3D%221%22%20parent%3D%221%22%3E%3CmxGeometry%20x%3D%22314.25%22%20y%3D%221510%22%20width%3D%2281.5%22%20height%3D%2220%22%20as%3D%22geometry%22%2F%3E%3C%2FmxCell%3E%3CmxCell%20id%3D%2215%22%20value%3D%22%26lt%3Bfont%20style%3D%26quot%3Bfont-size%3A%2012px%26quot%3B%26gt%3BPROFESSION%26lt%3B%2Ffont%26gt%3B%22%20style%3D%22rounded%3D0%3BwhiteSpace%3Dwrap%3Bhtml%3D1%3BfontSize%3D7%3Balign%3Dright%3B%22%20vertex%3D%221%22%20parent%3D%221%22%3E%3CmxGeometry%20x%3D%22303.5%22%20y%3D%221540%22%20width%3D%2290%22%20height%3D%2220%22%20as%3D%22geometry%22%2F%3E%3C%2FmxCell%3E%3CmxCell%20id%3D%2216%22%20value%3D%22%26lt%3Bfont%20style%3D%26quot%3Bfont-size%3A%2012px%26quot%3B%26gt%3BWORK%20INDUSTRY%26lt%3B%2Ffont%26gt%3B%22%20style%3D%22rounded%3D0%3BwhiteSpace%3Dwrap%3Bhtml%3D1%3BfontSize%3D7%3Balign%3Dright%3B%22%20vertex%3D%221%22%20parent%3D%221%22%3E%3CmxGeometry%20x%3D%22308.75%22%20y%3D%221580%22%20width%3D%22110%22%20height%3D%2220%22%20as%3D%22geometry%22%2F%3E%3C%2FmxCell%3E%3CmxCell%20id%3D%2217%22%20value%3D%22%26lt%3Bfont%20style%3D%26quot%3Bfont-size%3A%2012px%26quot%3B%26gt%3BSALARY%26lt%3B%2Ffont%26gt%3B%22%20style%3D%22rounded%3D0%3BwhiteSpace%3Dwrap%3Bhtml%3D1%3BfontSize%3D7%3Balign%3Dright%3B%22%20vertex%3D%221%22%20parent%3D%221%22%3E%3CmxGeometry%20x%3D%22434%22%20y%3D%221390%22%20width%3D%2266%22%20height%3D%2220%22%20as%3D%22geometry%22%2F%3E%3C%2FmxCell%3E%3C%2Froot%3E%3C%2FmxGraphModel%3E&lt;/span&gt;" style="rounded=0;whiteSpace=wrap;html=1;fontSize=12;fillColor=#FFFFFF;align=right;" vertex="1" parent="gQ8iV9-HGIT4t2tzXrnF-1">
          <mxGeometry x="10" y="1220" width="690" height="60" as="geometry" />
        </mxCell>
        <mxCell id="KVJLC2Wm0u30SF4xRhz_-1" value="&lt;font style=&quot;font-size: 12px&quot;&gt;AGE&lt;/font&gt;" style="rounded=0;whiteSpace=wrap;html=1;fontSize=7;align=right;" vertex="1" parent="gQ8iV9-HGIT4t2tzXrnF-1">
          <mxGeometry x="20" y="1390" width="35" height="15" as="geometry" />
        </mxCell>
        <mxCell id="KVJLC2Wm0u30SF4xRhz_-2" value="&lt;font style=&quot;font-size: 12px&quot;&gt;MARTIAL STATUS&lt;/font&gt;" style="rounded=0;whiteSpace=wrap;html=1;fontSize=7;align=right;" vertex="1" parent="gQ8iV9-HGIT4t2tzXrnF-1">
          <mxGeometry x="20" y="1450" width="110" height="20" as="geometry" />
        </mxCell>
        <mxCell id="KVJLC2Wm0u30SF4xRhz_-3" value="&lt;font style=&quot;font-size: 12px&quot;&gt;GENDER&lt;/font&gt;" style="rounded=0;whiteSpace=wrap;html=1;fontSize=7;align=right;" vertex="1" parent="gQ8iV9-HGIT4t2tzXrnF-1">
          <mxGeometry x="20" y="1480" width="60" height="20" as="geometry" />
        </mxCell>
        <mxCell id="KVJLC2Wm0u30SF4xRhz_-4" value="&lt;span style=&quot;font-size: 12px&quot;&gt;DATE OF BIRTH&lt;/span&gt;" style="rounded=0;whiteSpace=wrap;html=1;fontSize=7;align=right;" vertex="1" parent="gQ8iV9-HGIT4t2tzXrnF-1">
          <mxGeometry x="20" y="1510" width="100" height="20" as="geometry" />
        </mxCell>
        <mxCell id="KVJLC2Wm0u30SF4xRhz_-5" value="&lt;font style=&quot;font-size: 12px&quot;&gt;TIME&lt;/font&gt;" style="rounded=0;whiteSpace=wrap;html=1;fontSize=7;align=right;" vertex="1" parent="gQ8iV9-HGIT4t2tzXrnF-1">
          <mxGeometry x="20" y="1540" width="40" height="20" as="geometry" />
        </mxCell>
        <mxCell id="KVJLC2Wm0u30SF4xRhz_-6" value="&lt;font style=&quot;font-size: 12px&quot;&gt;CASTE&lt;/font&gt;" style="rounded=0;whiteSpace=wrap;html=1;fontSize=7;align=right;" vertex="1" parent="gQ8iV9-HGIT4t2tzXrnF-1">
          <mxGeometry x="20" y="1420" width="41.5" height="20" as="geometry" />
        </mxCell>
        <mxCell id="KVJLC2Wm0u30SF4xRhz_-7" value="&lt;font style=&quot;font-size: 12px&quot;&gt;PLACE OF BIRTH&lt;/font&gt;" style="rounded=0;whiteSpace=wrap;html=1;fontSize=7;align=right;" vertex="1" parent="gQ8iV9-HGIT4t2tzXrnF-1">
          <mxGeometry x="20" y="1570" width="105" height="20" as="geometry" />
        </mxCell>
        <mxCell id="KVJLC2Wm0u30SF4xRhz_-8" value="&lt;font style=&quot;font-size: 12px&quot;&gt;GOTHRAM&lt;/font&gt;" style="rounded=0;whiteSpace=wrap;html=1;fontSize=7;align=right;" vertex="1" parent="gQ8iV9-HGIT4t2tzXrnF-1">
          <mxGeometry x="300" y="1360" width="61.5" height="20" as="geometry" />
        </mxCell>
        <mxCell id="KVJLC2Wm0u30SF4xRhz_-9" value="&lt;font style=&quot;font-size: 12px&quot;&gt;NAKSHATRAM&lt;/font&gt;" style="rounded=0;whiteSpace=wrap;html=1;fontSize=7;align=right;" vertex="1" parent="gQ8iV9-HGIT4t2tzXrnF-1">
          <mxGeometry x="300" y="1420" width="91.5" height="20" as="geometry" />
        </mxCell>
        <mxCell id="KVJLC2Wm0u30SF4xRhz_-10" value="&lt;font style=&quot;font-size: 12px&quot;&gt;HEIGHT&lt;/font&gt;" style="rounded=0;whiteSpace=wrap;html=1;fontSize=7;align=right;" vertex="1" parent="gQ8iV9-HGIT4t2tzXrnF-1">
          <mxGeometry x="300" y="1450" width="51.5" height="20" as="geometry" />
        </mxCell>
        <mxCell id="KVJLC2Wm0u30SF4xRhz_-11" value="&lt;font style=&quot;font-size: 12px&quot;&gt;COMPLEXION&lt;/font&gt;" style="rounded=0;whiteSpace=wrap;html=1;fontSize=7;align=right;" vertex="1" parent="gQ8iV9-HGIT4t2tzXrnF-1">
          <mxGeometry x="300" y="1480" width="80" height="20" as="geometry" />
        </mxCell>
        <mxCell id="KVJLC2Wm0u30SF4xRhz_-12" value="&lt;font style=&quot;font-size: 12px&quot;&gt;EDUCATION&lt;/font&gt;" style="rounded=0;whiteSpace=wrap;html=1;fontSize=7;align=right;" vertex="1" parent="gQ8iV9-HGIT4t2tzXrnF-1">
          <mxGeometry x="299.25" y="1510" width="81.5" height="20" as="geometry" />
        </mxCell>
        <mxCell id="KVJLC2Wm0u30SF4xRhz_-13" value="&lt;font style=&quot;font-size: 12px&quot;&gt;PROFESSION&lt;/font&gt;" style="rounded=0;whiteSpace=wrap;html=1;fontSize=7;align=right;" vertex="1" parent="gQ8iV9-HGIT4t2tzXrnF-1">
          <mxGeometry x="300.75" y="1540" width="90" height="20" as="geometry" />
        </mxCell>
        <mxCell id="KVJLC2Wm0u30SF4xRhz_-14" value="&lt;font style=&quot;font-size: 12px&quot;&gt;WORK INDUSTRY&lt;/font&gt;" style="rounded=0;whiteSpace=wrap;html=1;fontSize=7;align=right;" vertex="1" parent="gQ8iV9-HGIT4t2tzXrnF-1">
          <mxGeometry x="295" y="1570" width="110" height="20" as="geometry" />
        </mxCell>
        <mxCell id="UaxwterDhaSodd2ICN2B-0" value="&lt;font style=&quot;font-size: 12px&quot;&gt;NAME&lt;/font&gt;" style="rounded=0;whiteSpace=wrap;html=1;fontSize=7;align=right;" vertex="1" parent="gQ8iV9-HGIT4t2tzXrnF-1">
          <mxGeometry x="21.5" y="1360" width="40" height="15" as="geometry" />
        </mxCell>
        <mxCell id="UaxwterDhaSodd2ICN2B-1" value="&lt;font style=&quot;font-size: 12px&quot;&gt;AGE&lt;/font&gt;" style="rounded=0;whiteSpace=wrap;html=1;fontSize=7;align=right;" vertex="1" parent="gQ8iV9-HGIT4t2tzXrnF-1">
          <mxGeometry x="325" y="1020" width="40" height="15" as="geometry" />
        </mxCell>
        <mxCell id="UaxwterDhaSodd2ICN2B-2" value="&lt;font style=&quot;font-size: 12px&quot;&gt;CASTE&lt;/font&gt;" style="rounded=0;whiteSpace=wrap;html=1;fontSize=7;align=right;" vertex="1" parent="gQ8iV9-HGIT4t2tzXrnF-1">
          <mxGeometry x="325" y="1060" width="50" height="20" as="geometry" />
        </mxCell>
        <mxCell id="UaxwterDhaSodd2ICN2B-3" value="&lt;font style=&quot;font-size: 12px&quot;&gt;GENDER&lt;/font&gt;" style="rounded=0;whiteSpace=wrap;html=1;fontSize=7;align=right;" vertex="1" parent="gQ8iV9-HGIT4t2tzXrnF-1">
          <mxGeometry x="325" y="1100" width="60" height="20" as="geometry" />
        </mxCell>
        <mxCell id="UaxwterDhaSodd2ICN2B-4" value="&lt;font style=&quot;font-size: 12px&quot;&gt;RELIGION&lt;/font&gt;" style="rounded=0;whiteSpace=wrap;html=1;fontSize=7;align=right;" vertex="1" parent="gQ8iV9-HGIT4t2tzXrnF-1">
          <mxGeometry x="325" y="1140" width="65" height="15" as="geometry" />
        </mxCell>
        <mxCell id="UaxwterDhaSodd2ICN2B-5" value="&lt;font style=&quot;font-size: 12px&quot;&gt;EDUCATION&lt;/font&gt;" style="rounded=0;whiteSpace=wrap;html=1;fontSize=7;align=right;" vertex="1" parent="gQ8iV9-HGIT4t2tzXrnF-1">
          <mxGeometry x="325" y="1169" width="77.5" height="20" as="geometry" />
        </mxCell>
        <mxCell id="UaxwterDhaSodd2ICN2B-6" value="&lt;font style=&quot;font-size: 12px&quot;&gt;OCCUPATION&lt;/font&gt;" style="rounded=0;whiteSpace=wrap;html=1;fontSize=7;align=right;" vertex="1" parent="gQ8iV9-HGIT4t2tzXrnF-1">
          <mxGeometry x="325" y="1200" width="80" height="20" as="geometry" />
        </mxCell>
        <mxCell id="7cdWTiHd4VM83zhHDJxN-0" value="&lt;font style=&quot;font-size: 12px&quot;&gt;SALARY&lt;/font&gt;" style="rounded=0;whiteSpace=wrap;html=1;fontSize=7;align=right;" vertex="1" parent="gQ8iV9-HGIT4t2tzXrnF-1">
          <mxGeometry x="297.75" y="1390" width="52.25" height="20" as="geometry" />
        </mxCell>
      </root>
    </mxGraphModel>
  </diagram>
  <diagram id="nnqxqwuCK5vwr0IFoTNW" name="USER SETTINGS">
    <mxGraphModel dx="868" dy="485" grid="1" gridSize="10" guides="1" tooltips="1" connect="1" arrows="1" fold="1" page="1" pageScale="1" pageWidth="827" pageHeight="1169" math="0" shadow="0">
      <root>
        <mxCell id="EH3ZJWRWWVxRCdaVlK7S-0" />
        <mxCell id="EH3ZJWRWWVxRCdaVlK7S-1" parent="EH3ZJWRWWVxRCdaVlK7S-0" />
        <mxCell id="EH3ZJWRWWVxRCdaVlK7S-2" value="PROFILE IMAGE" style="ellipse;whiteSpace=wrap;html=1;aspect=fixed;fontSize=12;fillColor=#FFFFFF;align=center;" vertex="1" parent="EH3ZJWRWWVxRCdaVlK7S-1">
          <mxGeometry x="280" y="100" width="190" height="190" as="geometry" />
        </mxCell>
        <mxCell id="EH3ZJWRWWVxRCdaVlK7S-3" value="NAME" style="rounded=0;whiteSpace=wrap;html=1;fontSize=12;fillColor=#FFFFFF;align=center;" vertex="1" parent="EH3ZJWRWWVxRCdaVlK7S-1">
          <mxGeometry x="50" y="310" width="100" height="30" as="geometry" />
        </mxCell>
        <mxCell id="EH3ZJWRWWVxRCdaVlK7S-5" value="EMAIL" style="rounded=0;whiteSpace=wrap;html=1;fontSize=12;fillColor=#FFFFFF;align=center;" vertex="1" parent="EH3ZJWRWWVxRCdaVlK7S-1">
          <mxGeometry x="50" y="360" width="100" height="30" as="geometry" />
        </mxCell>
        <mxCell id="EH3ZJWRWWVxRCdaVlK7S-6" value="NO OF POSTED PROFILES" style="rounded=0;whiteSpace=wrap;html=1;fontSize=12;fillColor=#FFFFFF;align=center;" vertex="1" parent="EH3ZJWRWWVxRCdaVlK7S-1">
          <mxGeometry x="50" y="410" width="100" height="30" as="geometry" />
        </mxCell>
        <mxCell id="EH3ZJWRWWVxRCdaVlK7S-7" value="MATCHED PROFILES" style="rounded=0;whiteSpace=wrap;html=1;fontSize=12;fillColor=#FFFFFF;align=center;" vertex="1" parent="EH3ZJWRWWVxRCdaVlK7S-1">
          <mxGeometry x="50" y="460" width="100" height="30" as="geometry" />
        </mxCell>
        <mxCell id="EH3ZJWRWWVxRCdaVlK7S-8" value="CONTACT" style="rounded=0;whiteSpace=wrap;html=1;fontSize=12;fillColor=#FFFFFF;align=center;" vertex="1" parent="EH3ZJWRWWVxRCdaVlK7S-1">
          <mxGeometry x="50" y="510" width="100" height="30" as="geometry" />
        </mxCell>
        <mxCell id="EH3ZJWRWWVxRCdaVlK7S-9" value="EDIT SETTINGS" style="rounded=0;whiteSpace=wrap;html=1;fontSize=12;fillColor=#FFFFFF;align=center;" vertex="1" parent="EH3ZJWRWWVxRCdaVlK7S-1">
          <mxGeometry x="560" y="320" width="90" height="30" as="geometry" />
        </mxCell>
        <mxCell id="EH3ZJWRWWVxRCdaVlK7S-11" value="SAVE&amp;nbsp;" style="rounded=0;whiteSpace=wrap;html=1;fontSize=12;fillColor=#FFFFFF;align=center;" vertex="1" parent="EH3ZJWRWWVxRCdaVlK7S-1">
          <mxGeometry x="310" y="555" width="70" height="35" as="geometry" />
        </mxCell>
      </root>
    </mxGraphModel>
  </diagram>
  <diagram id="yI3NgyOEkhCLQdOd63g-" name="REGISTER">
    <mxGraphModel dx="868" dy="485" grid="1" gridSize="10" guides="1" tooltips="1" connect="1" arrows="1" fold="1" page="1" pageScale="1" pageWidth="827" pageHeight="1169" math="0" shadow="0">
      <root>
        <mxCell id="Syw3bRsxhaMUiUDb9CH7-0" />
        <mxCell id="Syw3bRsxhaMUiUDb9CH7-1" parent="Syw3bRsxhaMUiUDb9CH7-0" />
        <mxCell id="Syw3bRsxhaMUiUDb9CH7-2" value="REGISTRATION PAGE" style="rounded=0;whiteSpace=wrap;html=1;fontSize=12;fillColor=#FFFFFF;align=center;" vertex="1" parent="Syw3bRsxhaMUiUDb9CH7-1">
          <mxGeometry x="210" y="150" width="430" height="60" as="geometry" />
        </mxCell>
        <mxCell id="Syw3bRsxhaMUiUDb9CH7-3" value="NAME" style="rounded=0;whiteSpace=wrap;html=1;fontSize=12;fillColor=#FFFFFF;align=center;" vertex="1" parent="Syw3bRsxhaMUiUDb9CH7-1">
          <mxGeometry x="80" y="240" width="80" height="30" as="geometry" />
        </mxCell>
        <mxCell id="Syw3bRsxhaMUiUDb9CH7-4" value="EMAIL" style="rounded=0;whiteSpace=wrap;html=1;fontSize=12;fillColor=#FFFFFF;align=center;" vertex="1" parent="Syw3bRsxhaMUiUDb9CH7-1">
          <mxGeometry x="80" y="290" width="80" height="30" as="geometry" />
        </mxCell>
        <mxCell id="Syw3bRsxhaMUiUDb9CH7-5" value="PHONE" style="rounded=0;whiteSpace=wrap;html=1;fontSize=12;fillColor=#FFFFFF;align=center;" vertex="1" parent="Syw3bRsxhaMUiUDb9CH7-1">
          <mxGeometry x="80" y="340" width="80" height="30" as="geometry" />
        </mxCell>
        <mxCell id="Syw3bRsxhaMUiUDb9CH7-6" value="PROFILE PIC" style="rounded=0;whiteSpace=wrap;html=1;fontSize=12;fillColor=#FFFFFF;align=center;" vertex="1" parent="Syw3bRsxhaMUiUDb9CH7-1">
          <mxGeometry x="80" y="390" width="80" height="30" as="geometry" />
        </mxCell>
        <mxCell id="GzgQb5gal2au95JVqRUt-0" value="PASSWORD" style="rounded=0;whiteSpace=wrap;html=1;fontSize=12;fillColor=#FFFFFF;align=center;" vertex="1" parent="Syw3bRsxhaMUiUDb9CH7-1">
          <mxGeometry x="80" y="450" width="80" height="30" as="geometry" />
        </mxCell>
        <mxCell id="GzgQb5gal2au95JVqRUt-1" value="PASSWORD AGAIN" style="rounded=0;whiteSpace=wrap;html=1;fontSize=12;fillColor=#FFFFFF;align=center;" vertex="1" parent="Syw3bRsxhaMUiUDb9CH7-1">
          <mxGeometry x="80" y="500" width="80" height="30" as="geometry" />
        </mxCell>
        <mxCell id="GzgQb5gal2au95JVqRUt-2" value="REGISTER" style="rounded=0;whiteSpace=wrap;html=1;fontSize=12;fillColor=#FFFFFF;align=center;" vertex="1" parent="Syw3bRsxhaMUiUDb9CH7-1">
          <mxGeometry x="340" y="540" width="100" height="40" as="geometry" />
        </mxCell>
      </root>
    </mxGraphModel>
  </diagram>
  <diagram id="WDpE16d7Et980MJ6y0oz" name="LOGIN PAGE">
    <mxGraphModel dx="868" dy="485" grid="1" gridSize="10" guides="1" tooltips="1" connect="1" arrows="1" fold="1" page="1" pageScale="1" pageWidth="827" pageHeight="1169" math="0" shadow="0">
      <root>
        <mxCell id="Y92FWnzNVgAeymIsiCsc-0" />
        <mxCell id="Y92FWnzNVgAeymIsiCsc-1" parent="Y92FWnzNVgAeymIsiCsc-0" />
        <mxCell id="Y92FWnzNVgAeymIsiCsc-2" value="LOGIN PAGE" style="rounded=0;whiteSpace=wrap;html=1;fontSize=12;fillColor=#FFFFFF;align=center;" vertex="1" parent="Y92FWnzNVgAeymIsiCsc-1">
          <mxGeometry x="230" y="100" width="330" height="60" as="geometry" />
        </mxCell>
      </root>
    </mxGraphModel>
  </diagram>
</mxfile>
